<svg width="24" height="24" viewBox="0 0 24 24" fill="none" xmlns="http://www.w3.org/2000/svg">
<path d="M2.25 4.5V18.75H9.75C10.316 18.75 10.8105 19.0662 11.0658 19.531C11.2652 19.8941 11.5858 20.25 12 20.25V20.25C12.4142 20.25 12.7348 19.8941 12.9342 19.531C13.1895 19.0662 13.684 18.75 14.25 18.75H21.75V4.5H14.25C13.3564 4.5 12.5508 4.89551 12 5.51953C11.4492 4.89551 10.6436 4.5 9.75 4.5H2.25ZM3.75 6H9.75C10.316 6 10.8105 6.31623 11.0658 6.78104C11.2652 7.14408 11.5858 7.5 12 7.5V7.5C12.4142 7.5 12.7348 7.14408 12.9342 6.78104C13.1895 6.31623 13.684 6 14.25 6H20.25V17.25H14.25C13.3564 17.25 12.5508 17.6455 12 18.2695C11.4492 17.6455 10.6436 17.25 9.75 17.25H3.75V6ZM11.25 7V18.75H12.75V7H11.25Z" fill="#00D2FF"/>
</svg>
