<svg width="24" height="24" viewBox="0 0 24 24" fill="none" xmlns="http://www.w3.org/2000/svg">
<path d="M12.2812 3.11719C12.1013 3.04219 11.8987 3.04219 11.7188 3.11719V3.11719L7.21875 4.92188V4.92188C6.93564 5.03512 6.75 5.30932 6.75 5.61423V10.1484L2.69531 11.9062V11.9062C2.42338 12.0351 2.25 12.309 2.25 12.6099V17.7218C2.25 17.9969 2.39172 18.2526 2.625 18.3984V18.3984L7.125 20.9062L7.13425 20.9112C7.34976 21.0261 7.60679 21.033 7.82812 20.9297V20.9297L12 18.8438L16.1719 20.9297V20.9297C16.3932 21.033 16.6502 21.0261 16.8658 20.9112L16.875 20.9062L21.375 18.3984V18.3984C21.6083 18.2526 21.75 17.9969 21.75 17.7218V12.6099C21.75 12.309 21.5766 12.0351 21.3047 11.9062V11.9062L17.25 10.1484V5.61423C17.25 5.30932 17.0644 5.03512 16.7812 4.92188V4.92188L12.2812 3.11719V3.11719ZM12 4.64062L14.4609 5.60156L12 6.5625L9.53906 5.60156L12 4.64062ZM8.25 6.70312L11.25 7.85156V11.5078L8.25 10.1719V6.70312ZM15.75 6.70312V10.1719L12.75 11.5078V7.85156L15.75 6.70312ZM7.5 11.4844L10.2188 12.6797L7.5 14.0156L4.78125 12.6562L7.5 11.4844ZM16.5 11.4844L19.2188 12.6562L16.5 14.0156L13.7812 12.6797L14.625 12.3047L16.5 11.4844ZM3.75 13.8047L6.75 15.3047V18.9844L3.75 17.2969V13.8047ZM20.25 13.8047V17.2969L17.25 18.9844V15.3047L20.25 13.8047ZM11.25 13.8516V17.5312L8.25 19.0312V15.3047L11.25 13.8516ZM12.75 13.8516L15.75 15.3047V19.0312L12.75 17.5312V13.8516Z" fill="#00D2FF"/>
</svg>
