<svg width="560" height="328" viewBox="0 0 560 328" fill="none" xmlns="http://www.w3.org/2000/svg">
<g id="ixo logo">
<g id="Fill 2">
<path fill-rule="evenodd" clip-rule="evenodd" d="M446.667 254.734C424.54 254.734 406.597 236.794 406.597 214.664C406.597 192.534 424.54 174.594 446.667 174.594C468.796 174.594 486.736 192.534 486.736 214.664C486.736 236.794 468.796 254.734 446.667 254.734M446.667 101.333C384.075 101.333 333.334 152.072 333.334 214.665C333.334 277.258 384.075 327.999 446.667 327.999C509.259 327.999 560 277.258 560 214.665C560 152.072 509.259 101.333 446.667 101.333" fill="url(#paint0_linear_4618_54338)"/>
<path fill-rule="evenodd" clip-rule="evenodd" d="M446.667 254.734C424.54 254.734 406.597 236.794 406.597 214.664C406.597 192.534 424.54 174.594 446.667 174.594C468.796 174.594 486.736 192.534 486.736 214.664C486.736 236.794 468.796 254.734 446.667 254.734M446.667 101.333C384.075 101.333 333.334 152.072 333.334 214.665C333.334 277.258 384.075 327.999 446.667 327.999C509.259 327.999 560 277.258 560 214.665C560 152.072 509.259 101.333 446.667 101.333" fill="url(#paint1_radial_4618_54338)" fill-opacity="0.3"/>
</g>
<g id="Fill 4">
<path fill-rule="evenodd" clip-rule="evenodd" d="M0 101.333V327.999H82.6665V101.333H82.4834H0Z" fill="url(#paint2_linear_4618_54338)"/>
<path fill-rule="evenodd" clip-rule="evenodd" d="M0 101.333V327.999H82.6665V101.333H82.4834H0Z" fill="url(#paint3_radial_4618_54338)" fill-opacity="0.3"/>
</g>
<g id="Fill 6">
<path fill-rule="evenodd" clip-rule="evenodd" d="M212.001 157.999L155.335 101.333H98.666V157.999L155.335 214.665L98.666 271.33V327.999H155.335L212.001 271.33L268.667 327.999V327.996V327.999H325.332V271.33L268.667 214.665L325.332 157.999V101.333H268.667L212.001 157.999Z" fill="url(#paint4_linear_4618_54338)"/>
<path fill-rule="evenodd" clip-rule="evenodd" d="M212.001 157.999L155.335 101.333H98.666V157.999L155.335 214.665L98.666 271.33V327.999H155.335L212.001 271.33L268.667 327.999V327.996V327.999H325.332V271.33L268.667 214.665L325.332 157.999V101.333H268.667L212.001 157.999Z" fill="url(#paint5_radial_4618_54338)" fill-opacity="0.3"/>
</g>
<g id="Fill 8">
<path fill-rule="evenodd" clip-rule="evenodd" d="M41.3333 82.6665C18.5055 82.6665 0 64.161 0 41.3333C0 18.5055 18.5055 0 41.3333 0C64.161 0 82.6665 18.5055 82.6665 41.3333C82.6665 64.161 64.161 82.6665 41.3333 82.6665" fill="url(#paint6_linear_4618_54338)"/>
<path fill-rule="evenodd" clip-rule="evenodd" d="M41.3333 82.6665C18.5055 82.6665 0 64.161 0 41.3333C0 18.5055 18.5055 0 41.3333 0C64.161 0 82.6665 18.5055 82.6665 41.3333C82.6665 64.161 64.161 82.6665 41.3333 82.6665" fill="url(#paint7_radial_4618_54338)" fill-opacity="0.3"/>
</g>
</g>
<defs>
<linearGradient id="paint0_linear_4618_54338" x1="446.667" y1="101.333" x2="446.667" y2="327.999" gradientUnits="userSpaceOnUse">
<stop stop-color="#00D2FF"/>
<stop offset="1" stop-color="#00D2FF" stop-opacity="0.8"/>
</linearGradient>
<radialGradient id="paint1_radial_4618_54338" cx="0" cy="0" r="1" gradientUnits="userSpaceOnUse" gradientTransform="translate(341.024 86.8209) rotate(60.7204) scale(352.562 277.143)">
<stop stop-color="white"/>
<stop offset="1" stop-color="white" stop-opacity="0"/>
</radialGradient>
<linearGradient id="paint2_linear_4618_54338" x1="41.3333" y1="101.333" x2="41.3333" y2="327.999" gradientUnits="userSpaceOnUse">
<stop stop-color="#00D2FF"/>
<stop offset="1" stop-color="#00D2FF" stop-opacity="0.8"/>
</linearGradient>
<radialGradient id="paint3_radial_4618_54338" cx="0" cy="0" r="1" gradientUnits="userSpaceOnUse" gradientTransform="translate(2.80475 86.8209) rotate(78.4428) scale(313.884 113.531)">
<stop stop-color="white"/>
<stop offset="1" stop-color="white" stop-opacity="0"/>
</radialGradient>
<linearGradient id="paint4_linear_4618_54338" x1="211.999" y1="101.333" x2="211.999" y2="327.999" gradientUnits="userSpaceOnUse">
<stop stop-color="#00D2FF"/>
<stop offset="1" stop-color="#00D2FF" stop-opacity="0.8"/>
</linearGradient>
<radialGradient id="paint5_radial_4618_54338" cx="0" cy="0" r="1" gradientUnits="userSpaceOnUse" gradientTransform="translate(106.356 86.8209) rotate(60.7204) scale(352.562 277.143)">
<stop stop-color="white"/>
<stop offset="1" stop-color="white" stop-opacity="0"/>
</radialGradient>
<linearGradient id="paint6_linear_4618_54338" x1="41.3333" y1="0" x2="41.3333" y2="82.6665" gradientUnits="userSpaceOnUse">
<stop stop-color="#00D2FF"/>
<stop offset="1" stop-color="#00D2FF" stop-opacity="0.8"/>
</linearGradient>
<radialGradient id="paint7_radial_4618_54338" cx="0" cy="0" r="1" gradientUnits="userSpaceOnUse" gradientTransform="translate(2.80475 -5.29268) rotate(60.7204) scale(128.582 101.076)">
<stop stop-color="white"/>
<stop offset="1" stop-color="white" stop-opacity="0"/>
</radialGradient>
</defs>
</svg>
