<svg width="24" height="24" viewBox="0 0 24 24" fill="none" xmlns="http://www.w3.org/2000/svg">
<path d="M14.0527 3.75C13.7264 3.75 13.4404 3.96839 13.3546 4.28319L9.24926 19.336C9.12373 19.7963 9.47023 20.25 9.94734 20.25V20.25C10.2736 20.25 10.5596 20.0316 10.6454 19.7168L14.7507 4.66396C14.8763 4.20366 14.5298 3.75 14.0527 3.75V3.75ZM6.55475 5.24434C6.22128 5.00065 5.75385 5.07039 5.50604 5.4008L0.890625 11.5547V11.5547C0.6955 11.8195 0.6955 12.1805 0.890625 12.4453V12.4453L5.50604 18.5992C5.75385 18.9296 6.22128 18.9994 6.55475 18.7557V18.7557C6.89427 18.5076 6.96541 18.0297 6.7129 17.6935L2.4375 12L6.7129 6.30652C6.96541 5.97025 6.89427 5.49245 6.55475 5.24434V5.24434ZM18.494 5.4008C18.2461 5.07039 17.7787 5.00065 17.4453 5.24434V5.24434C17.1057 5.49245 17.0346 5.97025 17.2871 6.30652L21.5625 12L17.2871 17.6935C17.0346 18.0297 17.1057 18.5076 17.4453 18.7557V18.7557C17.7787 18.9994 18.2461 18.9296 18.494 18.5992L23.1094 12.4453V12.4453C23.3045 12.1805 23.3045 11.8195 23.1094 11.5547V11.5547L18.494 5.4008Z" fill="#00D2FF"/>
</svg>
